<?xml version="1.0" encoding="UTF-8" standalone="no"?>
<!-- Created with Inkscape (http://www.inkscape.org/) -->

<svg
   width="300mm"
   height="300mm"
   viewBox="0 0 300 299.99999"
   version="1.1"
   id="svg1"
   inkscape:version="1.4 (86a8ad7, 2024-10-11)"
   sodipodi:docname="DLS.svg"
   inkscape:export-filename="DLS.png"
   inkscape:export-xdpi="29.633333"
   inkscape:export-ydpi="29.633333"
   xmlns:inkscape="http://www.inkscape.org/namespaces/inkscape"
   xmlns:sodipodi="http://sodipodi.sourceforge.net/DTD/sodipodi-0.dtd"
   xmlns="http://www.w3.org/2000/svg"
   xmlns:svg="http://www.w3.org/2000/svg">
  <sodipodi:namedview
     id="namedview1"
     pagecolor="#ffffff"
     bordercolor="#000000"
     borderopacity="0.25"
     inkscape:showpageshadow="2"
     inkscape:pageopacity="0.0"
     inkscape:pagecheckerboard="0"
     inkscape:deskcolor="#d1d1d1"
     inkscape:document-units="mm"
     inkscape:zoom="0.70710678"
     inkscape:cx="381.83766"
     inkscape:cy="624.37528"
     inkscape:window-width="2560"
     inkscape:window-height="1369"
     inkscape:window-x="-8"
     inkscape:window-y="-8"
     inkscape:window-maximized="1"
     inkscape:current-layer="layer1"
     inkscape:export-bgcolor="#ffffff00" />
  <defs
     id="defs1">
    <pattern
       id="EMFhbasepattern"
       patternUnits="userSpaceOnUse"
       width="6"
       height="6"
       x="0"
       y="0" />
    <pattern
       id="EMFhbasepattern-8"
       patternUnits="userSpaceOnUse"
       width="6"
       height="6"
       x="0"
       y="0" />
  </defs>
  <g
     inkscape:label="Layer 1"
     inkscape:groupmode="layer"
     id="layer1"
     transform="translate(-144.85653,-23.115685)">
    <path
       style="color:#000000;font-style:normal;font-variant:normal;font-weight:normal;font-stretch:normal;font-size:medium;line-height:normal;font-family:sans-serif;font-variant-ligatures:normal;font-variant-position:normal;font-variant-caps:normal;font-variant-numeric:normal;font-variant-alternates:normal;font-variant-east-asian:normal;font-feature-settings:normal;font-variation-settings:normal;text-indent:0;text-align:start;text-decoration-line:none;text-decoration-style:solid;text-decoration-color:#000000;letter-spacing:normal;word-spacing:normal;text-transform:none;writing-mode:lr-tb;direction:ltr;text-orientation:mixed;dominant-baseline:auto;baseline-shift:baseline;text-anchor:start;white-space:normal;shape-padding:0;shape-margin:0;inline-size:0;clip-rule:nonzero;display:inline;overflow:visible;visibility:visible;isolation:auto;mix-blend-mode:normal;color-interpolation:sRGB;color-interpolation-filters:linearRGB;solid-color:#000000;solid-opacity:1;vector-effect:none;fill:#bd464a;fill-opacity:1;fill-rule:nonzero;stroke:none;stroke-linecap:butt;stroke-linejoin:miter;stroke-miterlimit:4;stroke-dasharray:none;stroke-dashoffset:0;stroke-opacity:1;-inkscape-stroke:none;color-rendering:auto;image-rendering:auto;shape-rendering:auto;text-rendering:auto;enable-background:accumulate;stop-color:#000000"
       d="m 196.96588,222.18767 v 88.15959 h 32.29871 c 12.02509,0 23.77042,-0.0506 34.15191,-6.97158 4.40909,-2.93939 10.5271,-7.79897 12.57532,-12.88418 0.67661,-1.67987 0.13237,-4.5435 0.13237,-6.35385 v -15.09038 -27.53332 c 0,-3.66963 0.98086,-8.94404 -0.0883,-12.44295 -0.46485,-1.5213 -1.81716,-2.9641 -2.73568,-4.2359 -2.93264,-4.06058 -6.64939,-7.61303 -10.94273,-10.23674 -9.67229,-5.91086 -19.94549,-6.17735 -30.97499,-6.17735 h -22.5032 c -1.91277,0 -2.50335,-1.696 -3.97115,-2.73569 -2.48088,-1.75728 -6.06349,-2.43203 -9.00128,-1.41196 -8.15404,2.83128 -8.71226,17.1429 1.05897,17.91431 m 148.52111,55.33139 c -4.36203,0.80354 -8.66731,2.27715 -12.97243,3.35343 -0.98697,0.24674 -4.02437,0.44084 -4.63301,1.23546 -1.04754,1.36762 1.32606,6.20693 1.45608,7.85406 2.51636,0 7.74351,-0.98539 9.79551,0.61774 2.82888,2.21006 0.10345,8.34221 1.10311,11.29572 0.30667,0.90606 1.83363,1.62621 2.6033,2.11794 2.72818,1.74301 5.8601,3.27511 9.00128,4.14765 10.87383,3.02051 23.41124,3.02806 33.35768,-2.91218 13.89411,-8.29787 20.46706,-30.86533 8.73654,-43.85917 -8.30394,-9.19823 -22.84219,-11.49697 -34.15191,-15.26687 -5.04522,-1.68175 -11.21146,-4.548 -10.58974,-10.94274 1.02413,-10.53372 15.67807,-12.54586 23.29742,-8.20705 4.1857,2.38352 5.53918,6.69683 6.35385,11.11923 l 18.00256,-3.70641 c -1.47154,-7.9882 -4.3802,-14.97799 -11.11923,-20.03225 -16.74435,-12.55827 -49.84793,-8.08483 -54.97841,15.00212 -1.94232,8.7404 -0.58963,19.48704 6.26561,25.94487 5.47751,5.15997 13.21198,8.24418 20.38525,10.23675 5.7533,1.59814 11.88138,3.46975 17.20832,6.13322 2.60656,1.30328 4.99817,3.44617 5.73612,6.39797 2.22501,8.90005 -6.35482,13.82314 -13.94317,14.56089 -9.90062,0.96256 -19.07979,-5.12945 -20.91473,-15.09038 m -66.18588,-69.09805 v 101.92625 h 58.24357 V 292.3447 h -38.3878 v -83.92369 h -19.85577 m -81.541,0.30886 c 5.53783,-1.0768 8.04723,6.95422 2.64744,8.60417 -5.79699,1.77131 -8.38217,-7.48907 -2.64744,-8.60417 m 19.06154,83.87957 v -66.18587 c 11.16333,0 24.56182,-2.11986 34.68139,3.22104 20.0879,10.60196 20.66172,45.02735 2.91218,57.84646 -10.46974,7.56148 -25.37307,5.11837 -37.59357,5.11837 z"
       id="path1"
       inkscape:export-filename="path1.png"
       inkscape:export-xdpi="43.349335"
       inkscape:export-ydpi="43.349335" />
    <g
       id="g33"
       transform="translate(54.095919,12.768428)">
      <path
         id="path12"
         style="baseline-shift:baseline;display:inline;overflow:visible;vector-effect:none;fill:#b5483f;fill-opacity:1;enable-background:accumulate;stop-color:#000000;stop-opacity:1"
         d="m 256.28517,23.12338 c -24.46148,-0.31445 -48.64262,9.00045 -63.89171,29.33258 -4.55334,6.07112 -8.24338,13.31325 -10.28206,20.65248 -5.28471,19.02493 -3.53001,39.39138 -3.53001,59.04498 0,6.17781 1.1037,13.60156 0,19.59312 1.4964,-0.43318 9.89704,-9.9056 10.50271,-11.64994 2.10502,-6.06249 -4.74296,-41.882949 4.94237,-65.9293 11.4223,-28.35887 40.57425,-42.84944 70.07738,-39.98103 10.68243,1.038585 15.19323,2.647745 22.2783,5.543173 1.46083,0.596993 3.12442,1.405126 4.46373,1.870847 -2.99236,5.41472 -4.44369,5.818984 -9.88753,14.428451 -1.28276,2.0287 -4.43566,6.021974 -4.43566,6.021974 0,0 3.24994,2.776141 5.3206,2.80552 1.54316,-1.813367 14.42763,-17.779192 20.91759,-28.55175 -13.83423,-7.206571 -26.46979,-12.923928 -46.47572,-13.18111 z"
         sodipodi:nodetypes="sssscsssscscscss" />
      <path
         id="path20"
         style="fill:#b5483f;fill-opacity:1;stroke:none"
         d="m 252.11788,67.53907 v 0.26458 c 4.57011,0 10.20158,1.40701 14.29784,3.39824 5.38896,2.61963 10.31063,5.81915 13.76815,10.89959 0.60532,0.88946 2.82602,3.52337 2.42724,4.67776 -0.23816,0.68942 -1.85822,1.57147 -2.42724,2.02985 -1.85623,1.4953 -3.69035,3.02109 -5.56038,4.50153 -8.49384,6.72429 -17.74915,13.25058 -27.53631,17.87229 -10.80055,5.10027 -12.82348,3.46111 -13.63586,4.58939 -0.18897,8.99162 -0.21724,19.39146 -0.14769,28.76834 0.004,0.001 0.0108,0.002 0.015,0.003 1.52525,1.97452 3.60337,4.00745 5.55987,5.86941 4.13848,3.78871 8.42485,7.21693 12.9744,10.50272 14.41115,10.40804 31.70627,15.18717 48.45337,20.47575 l -3.0887,-14.56241 -7.14892,-32.56752 -2.38331,-10.32599 -1.23559,-4.63383 -4.14806,-1.36787 -11.38535,-3.26543 c 1.07743,3.7221 6.06135,7.64458 9.00255,9.97303 1.32946,1.05249 3.77431,2.23163 4.50101,3.79512 1.47083,3.16452 1.27189,7.93904 1.942,11.38535 1.99537,10.26182 2.83349,21.21453 5.73661,31.24357 -4.73597,0 -10.50765,-2.34812 -14.82752,-4.14807 -10.11303,-4.21376 -19.65336,-8.99563 -28.06599,-16.23983 -3.02181,-2.60212 -8.24377,-6.3843 -9.92911,-10.0614 -0.6188,-5.11777 -0.12534,-19.3703 0,-19.59312 0.62563,-1.11223 3.38265,-1.00741 13.63586,-6.134 11.49167,-5.74584 22.3323,-13.14818 32.8321,-20.60856 0.99207,5.38556 3.15653,10.70521 4.94234,15.88689 1.28862,3.73902 2.09252,10.82851 3.92983,16.69735 1.91741,6.12471 3.69002,11.78954 8.60325,12.42749 -0.56613,-7.17084 -3.28579,-14.79343 -5.20743,-21.71134 -3.87585,-13.95311 -5.43785,-31.19597 -16.769,-41.56956 -7.99917,-7.32319 -18.80413,-8.47286 -29.12536,-8.47286 z"
         sodipodi:nodetypes="ccsssssscccsscccccccssscssssscsscsscc" />
      <path
         id="path32"
         style="baseline-shift:baseline;display:inline;overflow:visible;vector-effect:none;fill:#5f5f5d;enable-background:accumulate;stop-color:#000000;stop-opacity:1"
         d="m 256.12278,51.07025 c -10.59394,0.0118 -21.23664,3.09097 -29.74857,9.47488 -11.23361,8.42521 -17.72502,20.82504 -19.06395,34.59685 -0.8423,8.66354 0.57721,17.55446 -0.26459,26.21287 -0.35323,3.63321 -1.48396,7.9132 -3.26595,11.12077 -1.26986,2.28574 -4.03499,4.70843 -4.67723,7.14892 h 16.68063 c -0.46108,2.50298 -2.06466,4.99035 -3.3538,7.14892 -6.25605,10.47524 -16.98126,15.46307 -27.36008,20.65248 v 0.26458 c 3.73277,0 7.48629,0.0258 11.12025,-0.88263 7.49084,-1.87273 13.49811,-7.30701 18.53427,-12.88552 2.75059,-3.04682 4.58808,-6.94313 6.31072,-10.59108 0.52202,-1.10546 0.75795,-3.4892 2.16215,-3.70675 2.49095,-0.38593 7.65474,-0.99423 10.08764,-0.28635 l -0.008,-4.96619 -15.37519,-0.0433 -7.94318,-0.26459 c 4.03983,-6.67448 2.64738,-16.88231 2.64738,-24.35923 0,-14.49187 0.9126,-27.34956 11.12077,-38.65707 10.36032,-11.47603 27.84379,-17.06653 42.8935,-12.88604 3.65909,1.01642 6.64206,2.036791 9.9387,3.885111 l 1.77442,-2.309924 1.75104,-2.356697 c -0.3232,-0.362868 -2.90374,-1.824924 -3.66734,-2.1749 -7.33109,-3.360078 -14.8686,-4.141188 -20.29385,-4.13515 z"
         sodipodi:nodetypes="sssssccscccsssccccssscccsss" />
    </g>
  </g>
</svg>
